<?xml version="1.0" encoding="UTF-8" standalone="no"?>
<!-- Created with Inkscape (http://www.inkscape.org/) -->

<svg
   xmlns:dc="http://purl.org/dc/elements/1.1/"
   xmlns:cc="http://creativecommons.org/ns#"
   xmlns:rdf="http://www.w3.org/1999/02/22-rdf-syntax-ns#"
   xmlns:svg="http://www.w3.org/2000/svg"
   xmlns="http://www.w3.org/2000/svg"
   xmlns:sodipodi="http://sodipodi.sourceforge.net/DTD/sodipodi-0.dtd"
   xmlns:inkscape="http://www.inkscape.org/namespaces/inkscape"
   width="603.23505"
   height="194.5074"
   id="svg2"
   version="1.1"
   inkscape:version="0.48.4 r9939"
   sodipodi:docname="New document 1">
  <defs
     id="defs4" />
  <sodipodi:namedview
     id="base"
     pagecolor="#ffffff"
     bordercolor="#666666"
     borderopacity="1.0"
     inkscape:pageopacity="0.0"
     inkscape:pageshadow="2"
     inkscape:zoom="0.35"
     inkscape:cx="336.43749"
     inkscape:cy="-314.53362"
     inkscape:document-units="px"
     inkscape:current-layer="layer1"
     showgrid="false"
     fit-margin-top="0"
     fit-margin-left="0"
     fit-margin-right="0"
     fit-margin-bottom="0"
     inkscape:window-width="686"
     inkscape:window-height="751"
     inkscape:window-x="1137"
     inkscape:window-y="0"
     inkscape:window-maximized="0" />
  <metadata
     id="metadata7">
    <rdf:RDF>
      <cc:Work
         rdf:about="">
        <dc:format>image/svg+xml</dc:format>
        <dc:type
           rdf:resource="http://purl.org/dc/dcmitype/StillImage" />
        <dc:title></dc:title>
      </cc:Work>
    </rdf:RDF>
  </metadata>
  <g
     inkscape:label="Layer 1"
     inkscape:groupmode="layer"
     id="layer1"
     transform="translate(-38.562511,-23.321167)">
    <text
       id="text3090"
       x="275.15033"
       y="250.36195"
       style="font-size:15px">
      <tspan
         style="font-size:12.44999981px;font-variant:normal;font-weight:normal;writing-mode:lr-tb;fill:#000000;fill-opacity:1;fill-rule:nonzero;stroke:none;font-family:Arial Black;-inkscape-font-specification:Arial"
         x="275.15033"
         y="250.36195"
         id="tspan3092"></tspan>
    </text>
    <text
       id="text3166"
       x="639.79968"
       y="351.91156"
       style="font-size:15px">
      <tspan
         style="font-size:12.44999981px;font-variant:normal;font-weight:normal;writing-mode:lr-tb;fill:#000000;fill-opacity:1;fill-rule:nonzero;stroke:none;font-family:Arial Black;-inkscape-font-specification:Arial"
         x="639.79968"
         y="351.91156"
         id="tspan3168"></tspan>
    </text>
    <g
       id="g3519"
       transform="translate(-97.142857,-560)">
      <text
         style="font-size:15px"
         y="593.48718"
         x="135.2"
         id="text3206">
        <tspan
           id="tspan3208"
           sodipodi:role="line"
           y="593.48718"
           x="135.2 177.64999 189.05 197.138 210.03951 218.9675 227.0555 233.4785 238.2365 243.8195 251.0675 255.41751 267.5675 274.76752 282.8555 291.78351 300.71149 305.46951 312.71753 317.0675 328.4855 337.41348 345.5015 352.74948 360.83749 368.08548 373.66849 380.9165 388.16449"
           style="font-size:15px;font-variant:normal;font-weight:bold;writing-mode:lr-tb;fill:#000000;fill-opacity:1;fill-rule:nonzero;stroke:none;font-family:Times New Roman;-inkscape-font-specification:Times-Bold">7Composite Graphic Characters</tspan>
      </text>
      <text
         style="font-size:15px"
         y="613.14471"
         x="177.64999"
         id="text3210">
        <tspan
           id="tspan3212"
           sodipodi:role="line"
           y="613.14471"
           x="177.64999 189.49866 195.64772 199.12874 202.60976 207.40924 210.89026 215.38968 220.93741 224.41843 227.89944 232.39888 238.54793 242.74731 248.29504 254.53995 260.68903 264.13892 269.68665 274.18604 279.73376 285.88281 291.43054 295.59631 301.14404 306.69177 310.17279 315.72052 319.88629 324.68573 329.18518 333.98465 340.28436 345.83206 351.37979 354.86081 358.9108 362.36069 367.90842 374.15332 378.65277 382.13379 388.28284 392.78226 396.26328 402.41235 405.89334 410.69284 415.19226 419.35803 425.50708 428.98813 434.53583 438.7016 444.85065 450.39838 453.87939 457.36041 463.60535 469.75439 475.30334 478.78436 483.28381 490.22592 493.70694 499.25464 505.40372 511.64865 517.19635 521.36212 527.60706 532.10645 537.65417 541.81995 547.36768 551.86707 556.66663 562.96631 568.51404 574.06177 577.54272 583.69177 589.84082 594.34027 599.888 606.03705 611.58478 615.75055 621.29828 626.84601 630.32703 635.87476 640.04053 644.83997 647.98987 652.48926 655.97028 659.45129 663.95074 667.43176 672.2312 676.73065 682.97559 689.22052 694.01996 698.81946 702.26935 708.51428 711.9953 717.54297 720.67542 725.17487 731.41974"
           style="font-size:12.44999981px;font-variant:normal;font-weight:normal;writing-mode:lr-tb;fill:#000000;fill-opacity:1;fill-rule:nonzero;stroke:none;font-family:Times New Roman;-inkscape-font-specification:Times-Roman">Whilst all graphic characters specified in this International Standard are spacing characters, it is possible, by</tspan>
        <tspan
           id="tspan3214"
           sodipodi:role="line"
           y="627.84442"
           x="177.64999 183.79906 188.59854 192.08328 198.23233 204.38139 208.28073 216.6795 225.52896 233.77834 242.77719 249.72305 256.77222 265.6217 273.87106 281.50168 285.401 291.64966 295.81915 299.71851 307.9679 316.81735 325.06671 333.3161 337.51547 346.36493 355.3638 362.99438 366.89374 375.14313 382.79239 390.59232 399.59116 407.84055 416.83939 420.73874 424.22348 430.47214 434.37149 437.85623 447.30579 452.85724 459.00629 464.55777 468.45709 471.94186 480.64066 486.88934 490.78867 497.03732 501.20682 505.10617 514.55566 520.85541 525.0249 530.57635 534.47571 540.62476 544.82416 550.37561 556.62427 562.77332 566.22327 571.77466 575.67401 581.22546 587.37451 592.92596 597.09552 602.64697 608.19843 611.68311 617.23462 621.40411 626.20355 630.10291 635.65436 639.13916 643.03851 646.52319 652.6723 658.22375 662.27374 667.07318 672.62213 682.07172 687.62067 691.67065 697.22211 703.37115 708.92261 713.0921 718.64355 724.19501 727.67981 733.23126"
           style="font-size:12.44999981px;font-variant:normal;font-weight:normal;writing-mode:lr-tb;fill:#000000;fill-opacity:1;fill-rule:nonzero;stroke:none;font-family:Times New Roman;-inkscape-font-specification:Times-Roman">using BACKSPACE or CARRIAGE RETURN to image two or more graphic characters at the same character</tspan>
        <tspan
           id="tspan3216"
           sodipodi:role="line"
           y="642.54413"
           x="177.64999 183.94971 190.24939 195.04886 198.50998 201.97107 205.43216 211.73187 217.88094 221.03078 225.23016 230.02965 235.55743 241.08524 244.23509 249.76289 253.22398 258.06705 264.36676 267.5166 273.04437 279.19345 285.3425 290.89148 297.04053 300.19037 308.58914 311.73898 318.0387 322.2381"
           style="font-size:12.44999981px;font-variant:normal;font-weight:normal;writing-mode:lr-tb;fill:#000000;fill-opacity:1;fill-rule:nonzero;stroke:none;font-family:Times New Roman;-inkscape-font-specification:Times-Roman">position (see also annex B.2).</tspan>
        <tspan
           id="tspan3218"
           sodipodi:role="line"
           y="664.74371"
           x="177.64999 184.59586 190.84451 195.01402 199.81349 205.36493 211.51399 217.06546 226.515 232.76366 236.24841 241.79987 244.93602 249.7355 256.68134 265.69391 273.19379 277.39319 286.40573 295.41827 302.36414 307.16364 312.71509 318.86414 325.11279 329.91226 337.54288 346.55542 355.56796 364.41742 371.9173 378.81711 383.61658 390.56244 394.73193 403.74451 412.75705 417.55652 427.00607 432.55502 438.55469 443.35419 449.60281 455.15427 459.95377 465.50522 471.75385 481.2034 487.50311 490.98785 497.13693 502.68839 508.93704 513.73651 517.22125 523.46997 528.26941 531.75415 541.20374 546.75513 552.90417 558.45569 563.25513 568.50403 574.65308 580.90173 584.38654 589.18597 594.73743 600.98608 607.13519 612.68414 616.16888 620.96838 626.21729 629.36713 634.16663 641.96649 648.1156 653.66705 658.46649 664.01794 670.16699 675.71844 679.88794 685.43939 690.99084 694.47565 700.0271 704.19659 709.14673 716.64661 725.64545"
           style="font-size:12.44999981px;font-variant:normal;font-weight:normal;writing-mode:lr-tb;fill:#000000;fill-opacity:1;fill-rule:nonzero;stroke:none;font-family:Times New Roman;-inkscape-font-specification:Times-Roman">For example, SOLIDUS and EQUALS SIGN may be combined to image &quot;not equals&quot;. The character LOW</tspan>
        <tspan
           id="tspan3220"
           sodipodi:role="line"
           y="679.44342"
           x="177.64999 185.14987 189.34927 198.36554 205.99989 209.13979 212.43904 215.92752 222.07658 227.63177 231.12025 234.41951 243.86906 249.41803 255.41768 258.71692 264.9693 270.52451 273.82376 279.97284 284.77228 290.32748 296.5799 299.87912 305.43433 310.23376 313.68369 319.23889 322.68878 326.73877 330.93814 336.49332 342.04852 346.09851 350.89798 354.34787 359.90305 366.05212 372.3045 375.793 381.94205 388.09113 391.54099 397.09619 403.24524 408.80045 412.97366 418.52887 424.08405 427.57254 433.12775 437.30096 440.44086 443.89078 453.3403 458.88928 464.88892 468.33881 473.89401 477.38251 482.18198 488.48169 491.93158 498.18399 503.73917 507.18903 512.74426 517.5437 522.34314 528.64288 534.19812 537.68658 543.24176 546.73022 552.2854 558.53784 561.98773 570.68652 574.17505 577.66351 583.81256 587.26245 593.51489 597.00336 603.1524 608.70135 612.87463 616.32452 621.8797 628.02875 633.58392 637.7572 643.31238 648.86755 652.35602 657.91125 662.08447 666.25769 671.05719 675.23047 678.6803 682.16882 688.4212 691.87109 696.04437 701.59955 707.85193 712.02515 717.58032 722.37982 727.93506 734.08405"
           style="font-size:12.44999981px;font-variant:normal;font-weight:normal;writing-mode:lr-tb;fill:#000000;fill-opacity:1;fill-rule:nonzero;stroke:none;font-family:Times New Roman;-inkscape-font-specification:Times-Roman">LINE, that may be used as a free-standing character, may also be associated with other character(s) to represent</tspan>
        <tspan
           id="tspan3222"
           sodipodi:role="line"
           y="694.14319"
           x="177.64999 181.11731 187.26639 192.80042 195.95026 202.0993 206.29871 211.83272 218.13242 224.28148 227.73137 233.2654 236.41524 240.61462 246.16359 252.31265 258.61237 262.07968 265.547 269.01434 275.31403 281.46307 284.61292 289.86185 296.01089 302.15997 308.45966 313.99368 318.19308 321.6604 325.12772 331.27679 336.81079 343.1105 348.35941"
           style="font-size:12.44999981px;font-variant:normal;font-weight:normal;writing-mode:lr-tb;fill:#000000;fill-opacity:1;fill-rule:nonzero;stroke:none;font-family:Times New Roman;-inkscape-font-specification:Times-Roman">the graphic rendition &quot;underlined&quot;.</tspan>
        <tspan
           id="tspan3224"
           sodipodi:role="line"
           y="716.34277"
           x="177.64999 186.66504 190.15228 195.70624 201.26018 205.43216 208.91942 212.40666 215.89391 221.44786 227.0018 230.48904 234.83908 244.28862 249.83759 254.00958 260.15863 264.95813 269.30817 278.75769 284.30664 290.30634 294.65637 300.9075 306.46143 310.81146 316.36542 319.85266 323.3399 329.59106 335.14499 340.69894 344.18619 349.74014 355.99127 360.34131 363.82855 370.07968 374.42972 377.91696 384.06601 389.61996 393.97 400.22113 403.70837 407.19562 411.54565 417.09961 423.35074 432.80029 439.10001 442.58725 448.7363 454.29025 457.7775 461.26474 467.51587 473.66495 478.46442 482.81442 487.61392 493.9136 499.46756 505.02151 508.50876 512.55872 516.00861 521.56262 527.81372 532.1637 535.651 541.80005 546.29944 552.55066 555.68927 561.94043 565.07904 571.3302 575.82959 581.38361 587.53259 593.78375 598.2832 604.53436 610.08832 614.58771 620.14166 626.29077 631.84467 635.33191 638.81915 644.37311 650.62427 654.11151 659.66547 664.16492 668.21484 674.51453 678.68658 683.18597 688.73993 694.99109 704.44061 710.69177 716.94293 721.74243 725.22968 731.37866"
           style="font-size:12.44999981px;font-variant:normal;font-weight:normal;writing-mode:lr-tb;fill:#000000;fill-opacity:1;fill-rule:nonzero;stroke:none;font-family:Times New Roman;-inkscape-font-specification:Times-Roman">Diacritical marks may be allocated to the bit combinations specified in 6.4.3 and be available for composing</tspan>
        <tspan
           id="tspan3226"
           sodipodi:role="line"
           y="731.04248"
           x="177.64999 183.18652 188.72302 194.25954 199.79605 205.9451 209.41493 214.95145 221.25114 224.5504 228.02022 233.55673 237.02654 240.49635 246.03287 250.18744 255.0392 258.1604 261.45966 268.39056 274.69028 278.84485 282.1441 286.99585 293.1449 298.68143 304.83047 308.12973 313.66626 319.96594 329.4155 335.71521 342.01489 346.81436 350.28418 353.754 357.22382 363.52353 369.67258 372.97183 378.50833 381.80759 386.65936 392.19589 398.49557 404.64462 410.18115 416.3302 421.8667 427.40323 430.70248 437.00217 441.05215 444.35141 447.82123 453.97028 458.12485 463.66135 469.19788 472.49713 478.03363 484.18268 489.71921 493.87378 499.41028 504.94678 508.4166 513.95312 518.10767 522.95947 526.08069 529.37988 532.84973 538.99878 544.53528 547.83459 551.88452 555.33447 559.48901 564.34082 567.81061 571.10986 577.40955 581.60889 585.05884 588.52863 594.06512 598.91687 602.38672 605.83661 612.13629 616.18628 619.63617 628.33502 634.48407 637.95386 643.49042 649.63947 653.08936 656.5592 661.41095 664.86084 668.33063 674.47968 680.01624 683.46613 686.93591 692.47241 695.94226 699.41211 704.94861 709.10315 712.55304 716.02289 722.32257 725.77246 732.07214"
           style="font-size:12.44999981px;font-variant:normal;font-weight:normal;writing-mode:lr-tb;fill:#000000;fill-opacity:1;fill-rule:nonzero;stroke:none;font-family:Times New Roman;-inkscape-font-specification:Times-Roman">accented letters. For such composition a sequence of three characters, the first or last of which is the letter to be</tspan>
        <tspan
           id="tspan3228"
           sodipodi:role="line"
           y="745.74219"
           x="177.64999 183.2027 188.7554 194.30811 199.86081 206.00986 209.49585 215.04855 221.29845 228.04761 233.6003 239.74936 245.99925 252.7484 256.23441 262.38345 267.93616 274.6853 279.55325 285.10596 290.65863 296.90857 303.05762 309.3573 316.10645 322.35635 326.40634 333.15546 341.85428 348.00336 351.48935 357.04205 363.1911 369.94025 373.42624 378.29422 385.04333 393.44211 402.29156 410.54095 419.53979 426.48691 433.5361 442.38556 450.63492 458.26678 465.16656 474.61612 480.1651 486.16473 493.06451 499.31442 504.86713 511.76691 517.91595 522.71545 528.26813 534.51807 537.65546 544.55524 551.50232 557.65137 561.82214 565.30817 571.45715 577.00616 581.17688 590.62646 596.87634 601.04712 606.59979 609.73718 616.63702 625.65082 634.66461 643.67841 651.47833 660.32782 668.12646 672.29724 681.31097 690.32483 697.22461 708.31757 717.16699 725.41638 734.41522"
           style="font-size:12.44999981px;font-variant:normal;font-weight:normal;writing-mode:lr-tb;fill:#000000;fill-opacity:1;fill-rule:nonzero;stroke:none;font-family:Times New Roman;-inkscape-font-specification:Times-Roman">accented and the second of which is BACKSPACE may be used. Furthermore, QUOTATION MARK,</tspan>
        <tspan
           id="tspan3230"
           sodipodi:role="line"
           y="760.44189"
           x="177.64999 186.49945 193.54865 202.54004 209.46474 217.26465 225.51402 234.50542 241.55461 250.54599 258.15546 261.75473 268.05444 272.25381 275.85309 284.15976 293.15112 304.22168 315.29224 324.14166 327.74097 333.27124 338.80157 344.95059 348.5499 354.84961 360.39856 363.99786 369.52814 374.37369 379.21924 385.51895 391.04922 394.51282 400.04312 403.50668 409.03699 415.3367 418.93597 427.6348 431.09839 434.56198 440.71103 444.31033 449.84061 453.43991 456.9035 462.43378 465.89737 469.36096 474.89127 479.09064 482.68994 488.98965 494.98929 498.58859 508.03815 513.56842 519.09869 525.2478 530.09332 533.69263 539.99231 544.0423 547.79224 556.19098 565.04047 573.34711 582.3385 589.26318 596.31238 605.1618 613.41119 621.02063 624.77057 628.82056 635.1203 639.31964 643.06958 646.53314 652.68225 658.21252 661.96246 667.49274 673.79248 683.242 689.54169 695.84143 700.64087 704.10449 707.56805 711.03168 717.33136 723.48041 727.23035 733.53003"
           style="font-size:12.44999981px;font-variant:normal;font-weight:normal;writing-mode:lr-tb;fill:#000000;fill-opacity:1;fill-rule:nonzero;stroke:none;font-family:Times New Roman;-inkscape-font-specification:Times-Roman">APOSTROPHE or COMMA can be associated with a letter by means of BACKSPACE for the composition of</tspan>
        <tspan
           id="tspan3232"
           sodipodi:role="line"
           y="775.1416"
           x="177.64999 183.1915 189.34055 192.4904 198.03189 203.57339 209.11488 214.65639 220.80544 224.28023 229.82173 236.12143 239.27127 242.74606 248.28757 251.76236 255.23715 260.77866 264.9382 268.08804 276.78687 280.26166 283.73645 289.8855 293.03534 298.57684 301.72668 308.0264 311.47632 317.01779 322.55927 326.71884 332.26031 337.11707 340.59186 345.44861 348.5748 351.72464 357.26614 363.41522 366.56506 372.10657 377.64804 383.79709 387.27188 392.81339 395.96323 401.50473 407.04623 412.58774 418.12921 424.27829 427.75308 430.90292 437.20261 441.40201 444.55185 450.09335 453.24319 458.7847 464.3262 470.62589 474.10068 477.57547 481.05026 486.59177 489.71796 492.86783 497.02737 502.56885 507.42557 513.72528 519.26678 524.80829 528.28308 531.75793 537.90692 543.44843 546.92322 552.92285"
           style="font-size:12.44999981px;font-variant:normal;font-weight:normal;writing-mode:lr-tb;fill:#000000;fill-opacity:1;fill-rule:nonzero;stroke:none;font-family:Times New Roman;-inkscape-font-specification:Times-Roman">an accented letter with a diaeresis, an acute accent or a cedilla, respectively.</tspan>
      </text>
    </g>
  </g>
</svg>
